<svg xmlns="http://www.w3.org/2000/svg" width="48" height="48" viewBox="0 0 48 48">
 <defs><linearGradient id="bg" x1="0" y1="0" x2="0" y2="1"><stop offset="0" stop-color="#38bdf8"/><stop offset="1" stop-color="#0c4a6e"/></linearGradient></defs>
 <rect width="48" height="48" rx="10" fill="url(#bg)"/>
 <path d="M8 19a2.5 2.5 0 0 1 2.5-2.5H19l2.5 3.2H37.5A2.5 2.5 0 0 1 40 22.4V35a2.5 2.5 0 0 1-2.5 2.5h-27A2.5 2.5 0 0 1 8 35z" fill="#e0f2fe"/>
 <path d="M29.5 25.6a4.3 4.3 0 0 0-8.2.7 3.5 3.5 0 0 0 .6 6.9h8.7a3.1 3.1 0 0 0 .5-6.1 4.3 4.3 0 0 0-1.6-1.5z" fill="#0284c7"/>
</svg>
